<svg width="309" height="308" viewBox="0 0 309 308" fill="none" xmlns="http://www.w3.org/2000/svg">
<path d="M46.1516 46.1918L130.178 46.1918L130.178 262.101L92.4193 262.101L92.4193 307.293L175.316 307.293L175.316 181.102L263.862 181.102L263.862 262.101L219.589 262.101L219.589 307.293L279.684 307.293C295.904 307.293 309 294.115 309 277.941L309 165.195C309 149.022 295.904 135.843 279.684 135.843L175.316 135.843L175.316 30.2848C175.316 14.1116 162.22 0.933398 145.999 0.933396L30.2637 0.933386C14.1098 0.933385 0.94749 14.045 0.947488 30.2848L0.947483 90.9843L46.0851 90.9843L46.0851 46.1918L46.1516 46.1918Z" fill="#247CFF"/>
</svg>
